<?xml version="1.0"?>
<!-- Generator: Adobe Illustrator 12.0.0, SVG Export Plug-In . SVG Version: 6.00 Build 51448)  -->
<!DOCTYPE svg PUBLIC "-//W3C//DTD SVG 1.1//EN" "http://www.w3.org/Graphics/SVG/1.1/DTD/svg11.dtd" [
	<!ENTITY ns_svg "http://www.w3.org/2000/svg">
	<!ENTITY ns_xlink "http://www.w3.org/1999/xlink">
]>
<svg  version="1.1" id="Layer_1" xmlns="&ns_svg;" xmlns:xlink="&ns_xlink;" width="192" height="192" viewBox="0 0 192 192"
	 overflow="visible" enable-background="new 0 0 192 192" xml:space="preserve">
<g>
	<path d="M0,12C0,5.3725586,5.3725586,0,12,0h168c6.6269531,0,12,5.3725586,12,12v168c0,6.6269531-5.3730469,12-12,12H12
		c-6.6274414,0-12-5.3730469-12-12V12L0,12z"/>
	<path d="M96,96"/>
</g>
<g>
	<circle fill="#FFFFFF" cx="96" cy="96" r="92"/>
	<path fill="#FFFFFF" d="M96,96"/>
</g>
<path fill-rule="evenodd" clip-rule="evenodd" d="M128.8320313,76.9311523c0,13.2480469-3.4082031,26.1606445-10.2246094,38.7368164
	c-6.8154297,12.5751953-15.8398438,22.703125-27.0712891,30.3828125l-7.4882813-12.9589844
	c10.3681641-8.1601563,18.1923828-17.9521484,23.4716797-29.3769531c-4.7998047,0.8642578-8.6396484,1.296875-11.5195313,1.296875
	c-9.0239258,0-16.7519531-2.8808594-23.184082-8.640625s-9.6479492-12.671875-9.6479492-20.7358398
	c0-8.2558594,3.1679688-15.2158203,9.5039063-20.8798828S86.7841797,46.2592773,96,46.2592773
	c9.3125,0,17.1123047,2.9282227,23.4003906,8.7836914C125.6875,60.8994141,128.8320313,68.1953125,128.8320313,76.9311523z
	 M113.5683594,75.6352539c0-3.7436523-1.7519531-6.9838867-5.2558594-9.7197266
	c-3.5039063-2.7363281-7.6083984-4.1040039-12.3125-4.1040039c-4.7998047,0-8.8798828,1.34375-12.2402344,4.0317383
	c-3.3598633,2.6879883-5.0400391,5.9521484-5.0400391,9.7919922c0,3.840332,1.6801758,7.1040039,5.0400391,9.7919922
	C87.1201172,88.1152344,91.2001953,89.4589844,96,89.4589844c4.8964844,0,9.0478516-1.34375,12.4560547-4.0317383
	S113.5683594,79.4755859,113.5683594,75.6352539z"/>
</svg>
